<?xml version="1.0" encoding="iso-8859-1"?>
<!-- Uploaded to: SVG Repo, www.svgrepo.com, Generator: SVG Repo Mixer Tools -->
<svg version="1.1" id="Layer_1" xmlns="http://www.w3.org/2000/svg" xmlns:xlink="http://www.w3.org/1999/xlink" 
	 viewBox="0 0 512 512" xml:space="preserve">
<rect x="44.907" y="61.927" style="fill:#00A99D;" width="422.186" height="62.745"/>
<g>
	<polygon style="fill:#B3B3B3;" points="467.095,47.75 421.601,10.199 89.203,10.199 44.905,47.75 44.905,61.927 467.095,61.927 	
		"/>
	<polygon style="fill:#B3B3B3;" points="467.095,124.674 421.601,124.674 421.601,463.137 90.399,463.137 90.399,124.674 
		44.905,124.674 44.905,501.801 467.095,501.801 	"/>
</g>
<polygon style="fill:#00A99D;" points="467.095,383.282 467.095,328.411 44.905,328.411 44.905,383.282 89.203,420.348 
	421.601,420.348 "/>
<g>
	<rect x="126.878" y="289.555" style="fill:#F7931E;" width="258.254" height="38.859"/>
	<rect x="126.878" y="163.789" style="fill:#F7931E;" width="258.254" height="82.869"/>
</g>
<g>
	<rect x="155.803" y="124.675" style="fill:#B3B3B3;" width="33.181" height="39.124"/>
	<rect x="323.019" y="124.675" style="fill:#B3B3B3;" width="33.181" height="39.124"/>
	<rect x="240.059" y="124.675" style="fill:#B3B3B3;" width="31.873" height="39.124"/>
	<rect x="211.878" y="61.927" style="fill:#B3B3B3;" width="88.244" height="62.745"/>
	<circle style="fill:#B3B3B3;" cx="180.016" cy="374.311" r="15.299"/>
	<circle style="fill:#B3B3B3;" cx="331.984" cy="374.311" r="15.299"/>
</g>
<path d="M477.294,47.75c0-3.043-1.36-5.929-3.706-7.866l-45.494-37.55C426.267,0.825,423.971,0,421.601,0H89.203
	c-2.415,0-4.753,0.857-6.595,2.419L38.31,39.97c-2.286,1.938-3.604,4.782-3.604,7.78v454.051c0,5.633,4.566,10.199,10.199,10.199
	h422.19c5.633,0,10.199-4.566,10.199-10.199V47.75z M100.598,430.547h310.804v22.39H100.598V430.547z M456.896,338.611v39.825
	l-38.923,31.713H92.908l-37.803-31.632v-39.906H456.896z M310.319,114.475V72.126h146.577v42.349H310.319z M456.896,318.212h-25.095
	V134.873h25.095V318.212z M374.926,318.212H137.074v-18.458h237.85v18.458H374.926z M385.125,279.356h-258.25
	c-5.633,0-10.199,4.566-10.199,10.199v28.657h-16.078V134.873h45.004v18.721h-18.726c-5.633,0-10.199,4.566-10.199,10.199v82.87
	c0,5.633,4.566,10.199,10.199,10.199h258.249c5.633,0,10.199-4.566,10.199-10.199v-82.87c0-5.633-4.566-10.199-10.199-10.199
	h-18.726v-18.721h45.004v183.339h-16.079v-28.657C395.324,283.922,390.757,279.356,385.125,279.356z M211.88,134.873h17.982v18.721
	H199.18v-18.721H211.88z M300.12,134.873h12.7v18.721h-30.682v-18.721H300.12z M374.926,173.992v62.471H137.074v-15.938h151.519
	c5.633,0,10.199-4.566,10.199-10.199c0-5.633-4.566-10.199-10.199-10.199H137.074v-26.134H374.926z M346,153.594h-12.782v-18.721
	H346V153.594z M261.739,153.594H250.26v-18.721h11.479V153.594z M178.782,153.594H166v-18.721h12.782V153.594z M222.08,114.475
	V72.126h67.842v42.349H222.08z M55.104,114.475V72.126h146.577v42.349H55.104z M55.104,134.873h25.095v183.339H55.104V134.873z
	 M55.986,51.727l36.958-31.329h324.992l37.955,31.329H55.986z M55.104,491.602v-86.486l25.095,20.998v37.023
	c0,5.633,4.566,10.199,10.199,10.199h331.203c5.633,0,10.199-4.566,10.199-10.199v-37.942l25.095-20.446v86.853H55.104z"/>
<path d="M328.838,200.127h-7.545c-5.633,0-10.199,4.566-10.199,10.199c0,5.633,4.566,10.199,10.199,10.199h7.545
	c5.633,0,10.199-4.566,10.199-10.199C339.037,204.693,334.471,200.127,328.838,200.127z"/>
<path d="M180.016,348.813c-14.06,0-25.498,11.438-25.498,25.498s11.438,25.498,25.498,25.498c14.06,0,25.498-11.438,25.498-25.498
	S194.076,348.813,180.016,348.813z M180.016,379.41c-2.812,0-5.1-2.288-5.1-5.1c0-2.812,2.288-5.1,5.1-5.1
	c2.812,0,5.1,2.288,5.1,5.1C185.116,377.123,182.828,379.41,180.016,379.41z"/>
<path d="M331.984,348.813c-14.06,0-25.498,11.438-25.498,25.498s11.438,25.498,25.498,25.498c14.06,0,25.498-11.438,25.498-25.498
	S346.044,348.813,331.984,348.813z M331.984,379.41c-2.812,0-5.1-2.288-5.1-5.1c0-2.812,2.288-5.1,5.1-5.1
	c2.812,0,5.1,2.288,5.1,5.1C337.084,377.123,334.796,379.41,331.984,379.41z"/>
</svg>